<svg xmlns="http://www.w3.org/2000/svg" xmlns:xlink="http://www.w3.org/1999/xlink" width="2745" height="2645.945" viewBox="0 0 2745 2645.945"><defs><linearGradient id="a" x1="-0.146" y1="1.247" x2="-0.104" y2="1.229" gradientUnits="objectBoundingBox"><stop offset="0" stop-color="#fff" stop-opacity="0.2"/><stop offset="1" stop-color="#fff" stop-opacity="0"/></linearGradient></defs><g transform="translate(2299 2562.267)"><g transform="translate(-641 -74)"><g transform="translate(-6546 750)"><text transform="translate(5302 -651)" fill="#444" font-size="200" font-family="Roboto-Bold, Roboto" font-weight="700"><tspan x="0" y="0">Pronóstico meteorológico</tspan></text></g><g transform="translate(-1659.634 -116)"><path d="M272.213,161.218l-29.276-25.824,28.24-26.94a3.992,3.992,0,0,0-1.663-6.73L231.928,90.878,245.819,54.5a3.984,3.984,0,0,0-.644-3.95,4.036,4.036,0,0,0-3.762-1.42l-38.633,6.228-3.142-38.786a4,4,0,0,0-2.285-3.293,4.046,4.046,0,0,0-4.011.321L161.129,35.7,141.56,2a4.036,4.036,0,0,0-6.97,0L112.128,40.683,73.273,18.258a4.044,4.044,0,0,0-4.024-.01,4,4,0,0,0-2.021,3.46l-.094,38.911-39-3.215a4.036,4.036,0,0,0-3.639,1.707,3.979,3.979,0,0,0-.332,3.987l16.7,35.191L4.24,112.017a3.99,3.99,0,0,0-1.132,6.838l30.264,24.67L6.211,171.539A3.992,3.992,0,0,0,8.137,178.2l37.981,9.382L33.666,224.468a3.984,3.984,0,0,0,.8,3.921,4.038,4.038,0,0,0,3.815,1.273l38.358-7.72L81.3,260.577a4,4,0,0,0,2.412,3.2,4.043,4.043,0,0,0,4-.476l31.321-23.331,20.876,31.84a4.029,4.029,0,0,0,3.4,1.867c.052,0,.1,0,.158,0a4.026,4.026,0,0,0,3.4-2.134L165.1,238.184l33.055,20.833a4.044,4.044,0,0,0,4.021.166,4,4,0,0,0,2.154-3.379l1.62-38.878L244.8,221.65a4.038,4.038,0,0,0,3.7-1.565,3.982,3.982,0,0,0,.489-3.972L233.682,180.3l37.131-12.3a3.991,3.991,0,0,0,1.4-6.788Z" fill="#444"/><ellipse cx="82.889" cy="82.825" rx="82.889" ry="82.825" transform="translate(53.829 53.315)" fill="#555"/><path d="M248.981,99.743q-3.114,0-6.17.229a82.821,82.821,0,0,1,0,165.192q3.056.224,6.17.229a82.825,82.825,0,1,0,0-165.649Z" transform="translate(-112.261 -46.428)" fill="#777"/></g></g><g transform="translate(-1738 -691)"><g transform="translate(-2759 1577)"><g transform="translate(3021 -2866)" fill="#a0ffae"><path d="M 635.97314453125 1271.446411132812 C 614.2965087890625 1271.446411132812 592.4360961914062 1270.342529296875 570.9991455078125 1268.165405273438 C 549.87255859375 1266.019897460938 528.6437377929688 1262.780029296875 507.9026794433594 1258.535766601562 C 487.4299011230469 1254.346557617188 466.9402160644531 1249.078125 447.002685546875 1242.876831054688 C 427.2883605957031 1236.744995117188 407.6449890136719 1229.555419921875 388.6185302734375 1221.507934570312 C 369.7677612304688 1213.53466796875 351.078369140625 1204.531616210938 333.0693054199219 1194.74853515625 C 315.1883850097656 1185.035034179688 297.5602111816406 1174.325561523438 280.6745300292969 1162.917724609375 C 263.870361328125 1151.565185546875 247.4109954833984 1139.256958007812 231.7534484863281 1126.335327148438 C 216.1342163085938 1113.4453125 200.9511413574219 1099.645874023438 186.6259155273438 1085.320556640625 C 172.3005218505859 1070.995239257812 158.5011444091797 1055.81201171875 145.6109924316406 1040.192993164062 C 132.6893005371094 1024.535400390625 120.3813018798828 1008.076049804688 109.0286865234375 991.2719116210938 C 97.62083435058594 974.38623046875 86.91145324707031 956.758056640625 77.19791412353516 938.8771362304688 C 67.41483306884766 920.8680419921875 58.41175842285156 902.1787109375 50.43852996826172 883.3279418945312 C 42.3909912109375 864.30126953125 35.20145034790039 844.6580810546875 29.06960678100586 824.943603515625 C 22.86837577819824 805.0062255859375 17.59991455078125 784.516357421875 13.41068267822266 764.0437622070312 C 9.166375160217285 743.3025512695312 5.926528930664062 722.07373046875 3.780990600585938 700.9471435546875 C 1.6039137840271 679.5101928710938 0.5000675916671753 657.6497802734375 0.5000675916671753 635.97314453125 C 0.5000675916671753 614.2965087890625 1.6039137840271 592.4360961914062 3.780990600585938 570.9991455078125 C 5.926528930664062 549.87255859375 9.166375160217285 528.6437377929688 13.41068267822266 507.9026794433594 C 17.59991455078125 487.4299011230469 22.86837577819824 466.9402160644531 29.06960678100586 447.002685546875 C 35.20145034790039 427.2883605957031 42.3909912109375 407.6449890136719 50.43852996826172 388.6185302734375 C 58.41175842285156 369.7677612304688 67.41483306884766 351.078369140625 77.19791412353516 333.0693054199219 C 86.91145324707031 315.1883850097656 97.62083435058594 297.5602111816406 109.0286865234375 280.6745300292969 C 120.3813018798828 263.870361328125 132.6893005371094 247.4109954833984 145.6109924316406 231.7534484863281 C 158.5011444091797 216.1342163085938 172.3005218505859 200.9511413574219 186.6259155273438 186.6259155273438 C 200.9511413574219 172.3005218505859 216.1342163085938 158.5011444091797 231.7534484863281 145.6109924316406 C 247.4109954833984 132.6893005371094 263.870361328125 120.3813018798828 280.6745300292969 109.0286865234375 C 297.5602111816406 97.62083435058594 315.1883850097656 86.91145324707031 333.0693054199219 77.19791412353516 C 351.078369140625 67.41483306884766 369.7677612304688 58.41175842285156 388.6185302734375 50.43852996826172 C 407.6449890136719 42.3909912109375 427.2883605957031 35.20145034790039 447.002685546875 29.06960678100586 C 466.9402160644531 22.86837577819824 487.4299011230469 17.59991455078125 507.9026794433594 13.41068267822266 C 528.6437377929688 9.166375160217285 549.87255859375 5.926528930664062 570.9991455078125 3.780990600585938 C 592.4360961914062 1.6039137840271 614.2965087890625 0.5000675916671753 635.97314453125 0.5000675916671753 C 657.6497802734375 0.5000675916671753 679.5101928710938 1.6039137840271 700.9471435546875 3.780990600585938 C 722.07373046875 5.926528930664062 743.3025512695312 9.166375160217285 764.0437622070312 13.41068267822266 C 784.516357421875 17.59991455078125 805.0062255859375 22.86837577819824 824.943603515625 29.06960678100586 C 844.6580810546875 35.20145034790039 864.30126953125 42.3909912109375 883.3279418945312 50.43852996826172 C 902.1787109375 58.41175842285156 920.8680419921875 67.41483306884766 938.8771362304688 77.19791412353516 C 956.758056640625 86.91145324707031 974.38623046875 97.62083435058594 991.2719116210938 109.0286865234375 C 1008.076049804688 120.3813018798828 1024.535400390625 132.6893005371094 1040.192993164062 145.6109924316406 C 1055.81201171875 158.5011444091797 1070.995239257812 172.3005218505859 1085.320556640625 186.6259155273438 C 1099.645874023438 200.9511413574219 1113.4453125 216.1342163085938 1126.335327148438 231.7534484863281 C 1139.256958007812 247.4109954833984 1151.565185546875 263.870361328125 1162.917724609375 280.6745300292969 C 1174.325561523438 297.5602111816406 1185.035034179688 315.1883850097656 1194.74853515625 333.0693054199219 C 1204.531616210938 351.078369140625 1213.53466796875 369.7677612304688 1221.507934570312 388.6185302734375 C 1229.555419921875 407.6449890136719 1236.744995117188 427.2883605957031 1242.876831054688 447.002685546875 C 1249.078125 466.9402160644531 1254.346557617188 487.4299011230469 1258.535766601562 507.9026794433594 C 1262.780029296875 528.6437377929688 1266.019897460938 549.87255859375 1268.165405273438 570.9991455078125 C 1270.342529296875 592.4360961914062 1271.446411132812 614.2965087890625 1271.446411132812 635.97314453125 C 1271.446411132812 657.6497802734375 1270.342529296875 679.5101928710938 1268.165405273438 700.9471435546875 C 1266.019897460938 722.07373046875 1262.780029296875 743.3025512695312 1258.535766601562 764.0437622070312 C 1254.346557617188 784.516357421875 1249.078125 805.0062255859375 1242.876831054688 824.943603515625 C 1236.744995117188 844.6580810546875 1229.555419921875 864.30126953125 1221.507934570312 883.3279418945312 C 1213.53466796875 902.1787109375 1204.531616210938 920.8680419921875 1194.74853515625 938.8771362304688 C 1185.035034179688 956.758056640625 1174.325561523438 974.38623046875 1162.917724609375 991.2719116210938 C 1151.565185546875 1008.076049804688 1139.256958007812 1024.535400390625 1126.335327148438 1040.192993164062 C 1113.4453125 1055.81201171875 1099.645874023438 1070.995239257812 1085.320556640625 1085.320556640625 C 1070.995239257812 1099.645874023438 1055.81201171875 1113.4453125 1040.192993164062 1126.335327148438 C 1024.535400390625 1139.256958007812 1008.076049804688 1151.565185546875 991.2719116210938 1162.917724609375 C 974.38623046875 1174.325561523438 956.758056640625 1185.035034179688 938.8771362304688 1194.74853515625 C 920.8680419921875 1204.531616210938 902.1787109375 1213.53466796875 883.3279418945312 1221.507934570312 C 864.30126953125 1229.555419921875 844.6580810546875 1236.744995117188 824.943603515625 1242.876831054688 C 805.0062255859375 1249.078125 784.516357421875 1254.346557617188 764.0437622070312 1258.535766601562 C 743.3025512695312 1262.780029296875 722.07373046875 1266.019897460938 700.9471435546875 1268.165405273438 C 679.5101928710938 1270.342529296875 657.6497802734375 1271.446411132812 635.97314453125 1271.446411132812 Z" stroke="none"/><path d="M 635.97314453125 1 C 614.3132934570312 1 592.469970703125 2.10302734375 571.0496215820312 4.2783203125 C 549.9396362304688 6.422119140625 528.7276611328125 9.659423828125 508.0028076171875 13.9005126953125 C 487.5463256835938 18.08642578125 467.0728149414062 23.3505859375 447.151123046875 29.5469970703125 C 427.4524536132812 35.6739501953125 407.8248291015625 42.8577880859375 388.8132934570312 50.89892578125 C 369.9774780273438 58.8658447265625 351.3027954101562 67.86181640625 333.3079833984375 77.6373291015625 C 315.4409790039062 87.3431396484375 297.8267822265625 98.044189453125 280.9542846679688 109.44287109375 C 264.1634521484375 120.78662109375 247.7169189453125 133.085205078125 232.0716552734375 145.9967041015625 C 216.464599609375 158.8765869140625 201.29345703125 172.665283203125 186.9793701171875 186.9793701171875 C 172.665283203125 201.29345703125 158.8765869140625 216.464599609375 145.9967041015625 232.0716552734375 C 133.085205078125 247.7169189453125 120.78662109375 264.1634521484375 109.44287109375 280.9542846679688 C 98.044189453125 297.8267822265625 87.3431396484375 315.4409790039062 77.6373291015625 333.3079833984375 C 67.86181640625 351.3027954101562 58.8658447265625 369.9774780273438 50.89892578125 388.8132934570312 C 42.8577880859375 407.8248291015625 35.6739501953125 427.4524536132812 29.5469970703125 447.151123046875 C 23.3505859375 467.0728149414062 18.08642578125 487.5463256835938 13.9005126953125 508.0028076171875 C 9.659423828125 528.7276611328125 6.422119140625 549.9396362304688 4.2783203125 571.0496215820312 C 2.10302734375 592.469970703125 1 614.3132934570312 1 635.97314453125 C 1 657.6329956054688 2.10302734375 679.4765014648438 4.2783203125 700.8966674804688 C 6.422119140625 722.0066528320312 9.659423828125 743.2186279296875 13.9005126953125 763.9434814453125 C 18.08642578125 784.3999633789062 23.3505859375 804.8734741210938 29.5469970703125 824.795166015625 C 35.6739501953125 844.4937744140625 42.8577880859375 864.1216430664062 50.89892578125 883.1331787109375 C 58.8658447265625 901.968994140625 67.86181640625 920.6436767578125 77.6373291015625 938.6384887695312 C 87.3431396484375 956.5053100585938 98.044189453125 974.11962890625 109.44287109375 990.991943359375 C 120.78662109375 1007.782958984375 133.085205078125 1024.2294921875 145.9967041015625 1039.874633789062 C 158.8765869140625 1055.481689453125 172.665283203125 1070.65283203125 186.9793701171875 1084.967041015625 C 201.29345703125 1099.281127929688 216.464599609375 1113.069580078125 232.0716552734375 1125.94970703125 C 247.7169189453125 1138.861328125 264.1634521484375 1151.159790039062 280.9542846679688 1162.50341796875 C 297.8267822265625 1173.90234375 315.4409790039062 1184.603149414062 333.3079833984375 1194.30908203125 C 351.3027954101562 1204.08447265625 369.9774780273438 1213.080444335938 388.8132934570312 1221.04736328125 C 407.8248291015625 1229.088500976562 427.4524536132812 1236.272338867188 447.151123046875 1242.399291992188 C 467.0728149414062 1248.595703125 487.5463256835938 1253.85986328125 508.0028076171875 1258.046020507812 C 528.7276611328125 1262.286865234375 549.9396362304688 1265.524169921875 571.0496215820312 1267.66796875 C 592.469970703125 1269.84326171875 614.3132934570312 1270.9462890625 635.97314453125 1270.9462890625 C 657.6329956054688 1270.9462890625 679.4765014648438 1269.84326171875 700.8966674804688 1267.66796875 C 722.0066528320312 1265.524169921875 743.2186279296875 1262.286865234375 763.9434814453125 1258.046020507812 C 784.3999633789062 1253.85986328125 804.8734741210938 1248.595703125 824.795166015625 1242.399291992188 C 844.4937744140625 1236.272338867188 864.1216430664062 1229.088500976562 883.1331787109375 1221.04736328125 C 901.968994140625 1213.080444335938 920.6436767578125 1204.08447265625 938.6384887695312 1194.30908203125 C 956.5053100585938 1184.603149414062 974.11962890625 1173.90234375 990.991943359375 1162.50341796875 C 1007.782958984375 1151.159790039062 1024.2294921875 1138.861328125 1039.874633789062 1125.94970703125 C 1055.481689453125 1113.069580078125 1070.65283203125 1099.281127929688 1084.967041015625 1084.967041015625 C 1099.281127929688 1070.65283203125 1113.069580078125 1055.481689453125 1125.94970703125 1039.874633789062 C 1138.861328125 1024.2294921875 1151.159790039062 1007.782958984375 1162.50341796875 990.991943359375 C 1173.90234375 974.11962890625 1184.603149414062 956.5053100585938 1194.30908203125 938.6384887695312 C 1204.08447265625 920.6436767578125 1213.080444335938 901.968994140625 1221.04736328125 883.1331787109375 C 1229.088500976562 864.1216430664062 1236.272338867188 844.4937744140625 1242.399291992188 824.795166015625 C 1248.595703125 804.8734741210938 1253.85986328125 784.3999633789062 1258.046020507812 763.9434814453125 C 1262.286865234375 743.2186279296875 1265.524169921875 722.0066528320312 1267.66796875 700.8966674804688 C 1269.84326171875 679.4765014648438 1270.9462890625 657.6329956054688 1270.9462890625 635.97314453125 C 1270.9462890625 614.3132934570312 1269.84326171875 592.469970703125 1267.66796875 571.0496215820312 C 1265.524169921875 549.9396362304688 1262.286865234375 528.7276611328125 1258.046020507812 508.0028076171875 C 1253.85986328125 487.5463256835938 1248.595703125 467.0728149414062 1242.399291992188 447.151123046875 C 1236.272338867188 427.4524536132812 1229.088500976562 407.8248291015625 1221.04736328125 388.8132934570312 C 1213.080444335938 369.9774780273438 1204.08447265625 351.3027954101562 1194.30908203125 333.3079833984375 C 1184.603149414062 315.4409790039062 1173.90234375 297.8267822265625 1162.50341796875 280.9542846679688 C 1151.159790039062 264.1634521484375 1138.861328125 247.7169189453125 1125.94970703125 232.0716552734375 C 1113.069580078125 216.464599609375 1099.281127929688 201.29345703125 1084.967041015625 186.9793701171875 C 1070.65283203125 172.665283203125 1055.481689453125 158.8765869140625 1039.874633789062 145.9967041015625 C 1024.2294921875 133.085205078125 1007.782958984375 120.78662109375 990.991943359375 109.44287109375 C 974.11962890625 98.044189453125 956.5053100585938 87.3431396484375 938.6384887695312 77.6373291015625 C 920.6436767578125 67.86181640625 901.968994140625 58.8658447265625 883.1331787109375 50.89892578125 C 864.1216430664062 42.8577880859375 844.4937744140625 35.6739501953125 824.795166015625 29.5469970703125 C 804.8734741210938 23.3505859375 784.3999633789062 18.08642578125 763.9434814453125 13.9005126953125 C 743.2186279296875 9.659423828125 722.0066528320312 6.422119140625 700.8966674804688 4.2783203125 C 679.4765014648438 2.10302734375 657.6329956054688 1 635.97314453125 1 M 635.97314453125 0 C 987.2114868164062 0 1271.9462890625 284.7349853515625 1271.9462890625 635.97314453125 C 1271.9462890625 987.2114868164062 987.2114868164062 1271.9462890625 635.97314453125 1271.9462890625 C 284.7349853515625 1271.9462890625 0 987.2114868164062 0 635.97314453125 C 0 284.7349853515625 284.7349853515625 0 635.97314453125 0 Z" stroke="none" fill="#707070"/></g><path d="M635.656,0C284.405,0,0,284.728,0,635.979c0,351.1,284.405,635.967,635.656,635.967,200.252,0,378.362-92.612,495.135-237.427,87.7-109.116,140.728-247.567,140.728-398.54,0-151.024-53.031-289.579-140.728-398.9C1014.018,92.572,835.908,0,635.656,0ZM614.909,18.018c6.8,0,13.892-.465,20.747-.465a596.943,596.943,0,0,1,91.112,6.829V56.1H771V177.061h-33.76l-29.05,28.87L637.7,276.554,600.966,313.34l-30.759-31.146v-79h30.759V166.248H573.829V71.463h38.8V23.243l.776-1.449ZM451.572,45.594l2.509,2.535,9.132,9-20.98,20.022H407.594v34.924h73.649v160.7H425.237v-116.2H386.123V100.592H361.288v32.595l-24.213,24.42H280.318L267.2,144.466l-2.742-2.742C319.9,99.764,383.019,67.273,451.572,45.594ZM55.981,421.11A618.907,618.907,0,0,1,196.709,201.274h3.984l189.543,1.914L382.578,243.8l-58.231,3.518,6,19.4,13.581,15.47L328.2,307.338l-46.28-5.639,27.137,36.631,46.487,32.751,15.522,36.786,19.169-5.691V307.338h52v11.744h54.507v65.449H473.353v27.111h-23.36v17.332h32.828l-20.954,21.575-8.8-9.106-20.281,20.385v17.229L414.4,497.735l-23,23.386-27.369,26.8-18.264,18.47v57.844H320.674V593.347H237.556v34.768l81.307,77.556h162.38v15.367h57.921l64,80.97H653.2V943.3H600.966l-27.137,38.442v86.971L494.7,1126.666v104.149l-88.705-80.505V937.458L310.9,848.573V740.542l-65.5-48.582H187.37l-41.623-41.391V593.347l-27.835-17.384-7.968,21.368,13.762,7.5v48.478L88.731,610.784,71.5,543.058l-15.521-3.777V421.11ZM1254.187,635.979c0,9.468-.233,18.832-.57,28.146l-4.009-3.725L1130.791,541.557l-11.848-11.951-13.373,13.452,25.222,25.2,15.159,15.263v50.5h-82.884l-41.054-40.666V566.391H998.264v37.666l55.1,54.946H1116.2V704.74l-57.274,56.549V922.2h-43.176v81.747l-33.888,33.887H902.031v-73L859.165,922.2V787.521l-53.392-53.5H694.25l-44-43.873V578.757l37.614-37.3H751.5l40.719-40.976h48.453v21.574H989.753V495.924h-38l22.117-22.144,21.549-21.523h36.371l-23.022-22.817H974.335l-36.5,36.372v28.612L898.952,455h-24.4l35.7,36.01H881.284l-23.257-23.334V452.257L823.363,417.7l-26.025,25.869-22.454,22.248V506.22H730.519V425.456h16.426v-14.8L757.423,400l-19.377-19.247-25.092,25.2L692.672,385.67,703.381,374.8V317.116h40.59V340.14l34.69,34.664h25.4v-27.11h77.22v-26.8H912.2v-38.7h-32.75V245.614H862.114v73.468L848.2,332.276l-27.136-11.383-46.177-11.279,3.777-44.7,46.514-34.923L852.31,183.58l50.42-11.538-5.95,23.179,32.725,5.691-1.81,23.386,36.708-4.087,17.461-11.434,3.648-19.143h77.556c24.86,23.593,47.108,49.928,67.725,77.194C1208.01,369.838,1254.187,497.425,1254.187,635.979Z" transform="translate(3021 -2866)" fill="#399cff"/></g><g transform="translate(1599.365 -1200.984)"><path d="M254.294,150.542l-27.337-24.114,26.37-25.156a3.728,3.728,0,0,0-1.553-6.284l-35.1-10.128,12.971-33.969a3.721,3.721,0,0,0-.6-3.688,3.769,3.769,0,0,0-3.513-1.326l-36.074,5.816-2.934-36.217a3.736,3.736,0,0,0-2.134-3.075,3.778,3.778,0,0,0-3.745.3L150.567,33.335,132.294,1.868a3.769,3.769,0,0,0-6.508,0L104.811,37.989,68.529,17.049a3.776,3.776,0,0,0-3.757-.009,3.732,3.732,0,0,0-1.887,3.231L62.8,56.6l-36.419-3a3.768,3.768,0,0,0-3.4,1.594,3.716,3.716,0,0,0-.31,3.723l15.594,32.86L4.067,104.6a3.726,3.726,0,0,0-1.057,6.385l28.26,23.036L5.908,160.179a3.728,3.728,0,0,0,1.8,6.218l35.466,8.76L31.545,209.6a3.72,3.72,0,0,0,.746,3.662,3.77,3.77,0,0,0,3.562,1.189l35.818-7.209,4.353,36.076a3.738,3.738,0,0,0,2.253,2.99,3.776,3.776,0,0,0,3.731-.445l29.247-21.786,19.494,29.731a3.762,3.762,0,0,0,3.178,1.743l.147,0a3.76,3.76,0,0,0,3.178-1.993l17.024-31.148,30.866,19.453a3.776,3.776,0,0,0,3.754.155,3.734,3.734,0,0,0,2.011-3.155l1.513-36.3,36.274,4.412a3.771,3.771,0,0,0,3.458-1.461,3.718,3.718,0,0,0,.456-3.709l-14.293-33.44,34.672-11.482a3.727,3.727,0,0,0,1.307-6.338Z" fill="#ffa600"/><ellipse cx="77.4" cy="77.34" rx="77.4" ry="77.34" transform="translate(50.373 49.784)" fill="#ffdb2d"/><path d="M248.572,99.743q-2.908,0-5.761.214a77.336,77.336,0,0,1,0,154.252q2.853.21,5.761.214a77.34,77.34,0,1,0,0-154.68Z" transform="translate(-120.798 -49.958)" fill="#ffca00"/></g><g transform="translate(179.353 -1871.268)"><path d="M179.5,352.938,316.349,117.3a7.413,7.413,0,0,0-7.409-11.069L217.909,118.6,239.66,4.416a3.707,3.707,0,0,0-6.6-2.932L98.508,179.1a7.414,7.414,0,0,0,6.685,11.85l100.361-10.564-32.9,169.99A3.707,3.707,0,0,0,179.5,352.938Z" transform="translate(0 0)" fill="#ffdc64"/><path d="M140.586,166.516a3.068,3.068,0,0,1-2.847-4.684L238.344.865a3.653,3.653,0,0,0-5.28.623L98.508,179.1a7.414,7.414,0,0,0,6.685,11.85l100.361-10.564-32.9,169.99a3.6,3.6,0,0,0,2.911,4.292l56.379-178.4a12.355,12.355,0,0,0-12.766-16.039Z" transform="translate(0 -0.005)" fill="#ffc850"/></g><g transform="translate(1730.199 -743.95)"><path d="M274.219,31.314,183.655,51.532a6.357,6.357,0,0,0-1.3,11.979l17.072,8.361c36.665,17.956,58.7,45.841,58.646,45.791,23.861,28.308,70.856,19.331,80.884-20.79C348.81,58.532,314.091,22.413,274.219,31.314Z" transform="translate(-91.847 0)" fill="#9cd7f2"/><path d="M275.419,108.028c.067.027-30.721-17.724-71.429-20.835l-18.954-1.449a6.388,6.388,0,0,1-5.719-4.458,6.418,6.418,0,0,0,3.041,8.615l17.072,8.361c36.665,17.956,58.7,45.841,58.646,45.791,23.861,28.308,70.856,19.331,80.884-20.791a52.251,52.251,0,0,0-2.019-32.537A45.9,45.9,0,0,1,275.419,108.028Z" transform="translate(-91.851 -26.39)" fill="#71c5db"/><path d="M358.806,303.576,303.75,273.665a5.837,5.837,0,0,0-8.259,7.181l3.223,9.256a177.717,177.717,0,0,1,9.829,50.964c1.22,26.491,30.879,42.751,53.694,27.742C386.15,352.857,384.073,317.3,358.806,303.576Z" transform="translate(-151.716 -124.903)" fill="#9cd7f2"/><path d="M328.993,335.259a177.742,177.742,0,0,0-22.209-46.911l-5.426-8.162a5.9,5.9,0,0,1,.378-7.193,5.864,5.864,0,0,0-6.245,7.86l3.223,9.256a177.715,177.715,0,0,1,9.829,50.964c1.22,26.491,30.879,42.751,53.694,27.742a37.783,37.783,0,0,0,10.375-10.244A35.13,35.13,0,0,1,328.993,335.259Z" transform="translate(-151.716 -124.907)" fill="#71c5db"/><path d="M91.083,207.514c-21.056-17.844-44.574-35.9-65.383-73.94h0A7.664,7.664,0,0,0,11.673,136.9L.4,234.1c-4.988,43.006,37.609,75.388,77,60.545C113.984,280.865,121.377,232.219,91.083,207.514Z" transform="translate(0 -51.492)" fill="#9cd7f2"/><path d="M32.108,231.676l-13.35-96.937a7.6,7.6,0,0,1,.758-4.61,7.539,7.539,0,0,0-7.843,6.773L.4,234.1c-4.988,43.007,37.609,75.388,77,60.545a49.684,49.684,0,0,0,20.109-13.874C67.739,285.093,36.716,265.128,32.108,231.676Z" transform="translate(0 -51.496)" fill="#71c5db"/></g><g transform="translate(727.002 -1735.16)"><path d="M341.646,91.831a56.9,56.9,0,0,0-92.084-51.56A90.918,90.918,0,0,0,86.214,68.493,59.879,59.879,0,1,0,59.906,182.149H334.669a45.424,45.424,0,0,0,6.994-90.315Zm0,0" transform="translate(0 0)" fill="#d9ecf2"/><g transform="translate(63.431 0.281)"><path d="M377.084,95.47a56.837,56.837,0,0,0-74.44-61.162A56.476,56.476,0,0,1,341.116,95.47a45.424,45.424,0,0,1-7,90.315h35.968a45.424,45.424,0,0,0,7-90.315Zm0,0" transform="translate(-98.87 -3.92)" fill="#bdd9e5"/><path d="M244.094,50.776c7.387-3.432,19.972-8.357,26.211-10.509a107.037,107.037,0,0,0-9.536-11.774A90.266,90.266,0,0,0,177.148,2.109C200.859,6.906,230.657,20.295,244.094,50.776Zm0,0" transform="translate(-84.175 -0.281)" fill="#bdd9e5"/><path d="M71.844,70.691a89.77,89.77,0,0,0,24.235,50.15,94.258,94.258,0,0,1-1.452-44.118A59.686,59.686,0,0,0,71.844,70.691Zm0,0" transform="translate(-71.844 -8.526)" fill="#bdd9e5"/></g></g><g transform="translate(1301.54 -1553.391)"><path d="M249.1,159.333l5.5,31.1L224.91,201.223l-20.622-31.234-8.71-5.025,6.252,23.329-14.385,3.853-10.11-37.719-17.8-10.274a22.352,22.352,0,0,1-7.056,4.087v20.543l27.614,27.609-10.537,10.537-17.077-17.082V199.9l16.685,33.374-24.133,21.074-24.133-21.074L137.579,199.9V189.847L120.5,206.929l-10.537-10.537,27.614-27.609V148.24a22.352,22.352,0,0,1-7.056-4.087l-17.8,10.274-10.11,37.719-14.385-3.853,6.252-23.329-8.71,5.025L65.145,201.223,35.46,190.438l5.5-31.1,37.362-2.244,8.71-5.025-23.334-6.252,3.858-14.39,37.719,10.105,17.792-10.269a21.978,21.978,0,0,1,0-8.164l-17.792-10.269L67.553,122.93l-3.858-14.39,23.334-6.252-8.71-5.025L40.957,95.018l-5.5-31.1,29.685-10.79L85.767,84.362l8.71,5.025L88.225,66.058,102.61,62.2l10.11,37.719,17.8,10.274a22.352,22.352,0,0,1,7.056-4.087V85.568L109.965,57.959,120.5,47.422,137.579,64.5V54.448L120.894,21.074,145.027,0,169.16,21.074,152.476,54.448V64.5l17.077-17.082L180.09,57.959,152.476,85.568v20.543a22.352,22.352,0,0,1,7.056,4.087l17.8-10.274L187.444,62.2l14.385,3.853-6.252,23.329,8.71-5.025L224.91,53.128l29.685,10.79-5.5,31.1-37.362,2.244-8.71,5.025,23.334,6.252L222.5,122.93l-37.719-10.105L166.99,123.094a21.978,21.978,0,0,1,0,8.164l17.792,10.269L222.5,131.421l3.858,14.39-23.334,6.252,8.71,5.025Z" fill="#76e2f8"/><path d="M360.18,159.333l5.5,31.1-29.685,10.785L315.37,169.989l-8.71-5.025,6.252,23.329-14.385,3.853-10.11-37.719-17.8-10.274a22.352,22.352,0,0,1-7.056,4.087v20.543l27.614,27.609-10.537,10.537-17.077-17.082V199.9l16.685,33.374L256.11,254.351V0l24.133,21.074L263.558,54.448V64.5l17.077-17.082,10.537,10.537L263.558,85.568v20.543a22.352,22.352,0,0,1,7.056,4.087l17.8-10.274L298.527,62.2l14.385,3.853L306.66,89.387l8.71-5.025,20.622-31.234,29.685,10.79-5.5,31.1-37.362,2.244-8.71,5.025,23.334,6.252-3.858,14.39-37.719-10.105-17.792,10.269a21.98,21.98,0,0,1,0,8.164l17.792,10.269,37.719-10.105,3.858,14.39-23.334,6.252,8.71,5.025Z" transform="translate(-111.083 0)" fill="#4bb9ec"/></g><g transform="translate(-448.589 -1376.119)"><g transform="translate(262.219)"><path d="M467.994,1087.949v-937.4C467.994,67.543,400.451,0,317.439,0S166.887,67.543,166.887,150.552v937.4c-38.433,39.4-60.22,92.1-60.22,146.583,0,116.209,94.566,210.775,210.775,210.775s210.772-94.566,210.772-210.775C528.214,1180.045,506.424,1127.354,467.994,1087.949Z" transform="translate(-106.667)" fill="#303c42"/></g><path d="M278.552,1346.2C195.543,1346.2,128,1278.657,128,1195.648c0-42.637,17.849-82.216,50.284-111.416a30.2,30.2,0,0,0,9.939-22.377V111.665a90.332,90.332,0,1,1,180.663,0v950.188a30.2,30.2,0,0,0,9.939,22.377c32.435,29.2,50.284,68.779,50.284,111.416C429.107,1278.657,361.564,1346.2,278.552,1346.2Z" transform="translate(194.44 38.887)" fill="#e6e6e6"/><path d="M158.112,1225.755c0-42.637,17.849-82.216,50.284-111.416a30.2,30.2,0,0,0,9.939-22.377V141.774a90.43,90.43,0,0,1,90.332-90.332,89.432,89.432,0,0,1,46.781,13.442c-15.879-26-44.257-43.551-76.889-43.551a90.43,90.43,0,0,0-90.332,90.332v950.188a30.2,30.2,0,0,1-9.939,22.377c-32.438,29.2-50.287,68.776-50.287,111.413,0,49.183,24.051,92.531,60.641,120.022C169.733,1290.5,158.112,1259.581,158.112,1225.755Z" transform="translate(194.44 38.889)" fill="#fff" opacity="0.2"/><g transform="translate(21.333 240.884)"><path d="M232.108,341.333H51.444a30.111,30.111,0,1,0,0,60.223H232.108a30.111,30.111,0,1,0,0-60.223Z" transform="translate(-21.333 381.321)" fill="#303c42"/><path d="M154.332,298.667H94.111a30.11,30.11,0,1,0,0,60.22h60.22a30.11,30.11,0,1,0,0-60.22Z" transform="translate(56.443 303.546)" fill="#303c42"/><path d="M154.332,256H94.111a30.111,30.111,0,1,0,0,60.223h60.22a30.111,30.111,0,1,0,0-60.223Z" transform="translate(56.443 225.77)" fill="#303c42"/><path d="M51.444,273.556H232.108a30.112,30.112,0,1,0,0-60.223H51.444a30.112,30.112,0,0,0,0,60.223Z" transform="translate(-21.333 147.994)" fill="#303c42"/><path d="M51.444,145.556H232.108a30.111,30.111,0,1,0,0-60.223H51.444a30.111,30.111,0,1,0,0,60.223Z" transform="translate(-21.333 -85.333)" fill="#303c42"/><path d="M154.332,170.667H94.111a30.11,30.11,0,1,0,0,60.22h60.22a30.11,30.11,0,1,0,0-60.22Z" transform="translate(56.443 70.219)" fill="#303c42"/><path d="M154.332,128H94.111a30.112,30.112,0,0,0,0,60.223h60.22a30.112,30.112,0,0,0,0-60.223Z" transform="translate(56.443 -7.557)" fill="#303c42"/></g><path d="M250.332,794.68V243.444a30.111,30.111,0,1,0-60.223,0V794.68C172.443,805.183,160,823.636,160,845.655a60.22,60.22,0,0,0,120.44,0C280.443,823.636,268,805.183,250.332,794.68Z" transform="translate(252.771 388.877)" fill="#d32f2f"/><path d="M894.541,481.77h60.22a90.43,90.43,0,0,1,90.332,90.332,30.112,30.112,0,1,0,60.223,0c0-83.009-67.543-150.552-150.552-150.552h-60.22c-83.009,0-150.552,67.543-150.552,150.552V812.985c0,83.009,67.543,150.552,150.552,150.552h60.217c83.009,0,150.552-67.543,150.552-150.552a30.111,30.111,0,0,0-60.223,0,90.43,90.43,0,0,1-90.332,90.332h-60.22a90.43,90.43,0,0,1-90.332-90.332V572.1A90.434,90.434,0,0,1,894.541,481.77Zm361.327-60.223a90.332,90.332,0,1,0,90.332,90.332A90.43,90.43,0,0,0,1255.868,421.547Zm0,120.443a30.111,30.111,0,1,1,30.111-30.111A30.132,30.132,0,0,1,1255.868,541.99ZM623.546,150.552C623.546,67.543,556,0,472.991,0S322.44,67.543,322.44,150.552v937.4c-38.433,39.4-60.22,92.1-60.22,146.583,0,116.209,94.566,210.775,210.775,210.775s210.772-94.566,210.772-210.775c0-54.487-21.79-107.181-60.22-146.583v-937.4ZM232.108,963.537H51.444a30.111,30.111,0,1,0,0,60.223H232.108a30.111,30.111,0,1,0,0-60.223Zm0-120.44h-60.22a30.11,30.11,0,1,0,0,60.22h60.22a30.11,30.11,0,1,0,0-60.22Zm0-120.443h-60.22a30.111,30.111,0,1,0,0,60.223h60.22a30.111,30.111,0,1,0,0-60.223ZM51.444,662.433H232.108a30.111,30.111,0,1,0,0-60.223H51.444a30.111,30.111,0,1,0,0,60.223Zm0-361.327H232.108a30.111,30.111,0,1,0,0-60.223H51.444a30.111,30.111,0,1,0,0,60.223ZM232.108,481.77h-60.22a30.11,30.11,0,1,0,0,60.22h60.22a30.11,30.11,0,1,0,0-60.22Zm0-120.443h-60.22a30.112,30.112,0,0,0,0,60.223h60.22a30.112,30.112,0,0,0,0-60.223Z" transform="translate(0)" fill="url(#a)"/></g><g transform="translate(1781.992 -232)"><path d="M247.2,8H8v3.488a29.856,29.856,0,0,0,2.681,12.374l37.136,81.7a99.689,99.689,0,0,1,8.811,46.221l-2.228,44.5a49.845,49.845,0,0,0,25.57,46.051L142.551,277.1l-9.728-19.455a49.838,49.838,0,0,1,7.53-55.625L194.374,142a99.723,99.723,0,0,0,19.585-32.611L245.4,22.92A29.936,29.936,0,0,0,247.2,12.7Z" transform="translate(15.934 23.9)" fill="#d3d3d3"/><ellipse cx="119.5" cy="30" rx="119.5" ry="30" transform="translate(24.008 2)" fill="#d3d3d3"/><g transform="translate(4 11.78)"><path d="M99.812,0c55.124,0,99.812,9.015,99.812,20.135S154.936,40.27,99.812,40.27,0,31.255,0,20.135,44.687,0,99.812,0Z" transform="translate(39.695 0)" fill="#908e8e"/><path d="M131.585,73.483C69.671,73.483,7,61.5,7,38.6c0-5.312,3.11-13.012,17.935-19.515l4,9.13c-7.5,3.284-11.97,7.166-11.97,10.385,0,10.161,44.651,24.917,114.618,24.917S246.2,48.76,246.2,38.6c0-3.219-4.47-7.1-11.965-10.385l4-9.13c14.821,6.5,17.93,14.2,17.93,19.515C256.169,61.5,193.5,73.483,131.585,73.483Z" transform="translate(7.95 56.272)" fill="#908e8e"/><path d="M111.176,86.682C62.887,86.682,14,76.411,14,56.781c0-6.538,6.08-13.051,13.839-14.826l2.218,9.718c-3.713.852-6.09,3.832-6.09,5.108,0,6.762,30.782,19.934,87.209,19.934s87.209-13.171,87.209-19.934c0-3.633-5.761-10.948-21.234-15.125l2.6-9.623c17.377,4.689,28.6,14.4,28.6,24.747,0,19.63-48.887,29.9-97.176,29.9Z" transform="translate(35.834 107.857)" fill="#908e8e"/><path d="M69.817,66.993C43.415,66.993,15,60.754,15,47.06h9.967c.752,2.691,15.7,9.967,44.85,9.967s44.1-7.276,44.86-10.042l9.957.075C124.634,60.754,96.219,66.993,69.817,66.993Z" transform="translate(39.817 167.413)" fill="#908e8e"/><path d="M143.535,46.884C87.447,46.884,4,37.595,4,12h9.967c0,8.7,44.5,24.917,129.568,24.917Z" transform="translate(-4 28.054)" fill="#908e8e"/><path d="M81.342,56c-26.168,0-55.236-9.688-62.98-16.091l6.354-7.679c4.844,4.007,30.683,13.8,56.626,13.8,27.658,0,52.027-10,56.621-13.809l6.354,7.679C136.2,46.631,108.312,56,81.342,56Z" transform="translate(53.209 108.634)" fill="#908e8e"/></g></g></g></g></svg>