<svg xmlns="http://www.w3.org/2000/svg" width="1915" height="528" viewBox="0 0 1915 528"><g transform="translate(-4662 1014)"><text transform="translate(5273 -804)" fill="#444" font-size="200" font-family="Roboto-Bold, Roboto" font-weight="700"><tspan x="0" y="0">Pronóstico </tspan><tspan x="0" y="264">meteorológico</tspan></text><g transform="translate(4660.366 -1006)"><path d="M507.834,301.608,453.065,253.3,505.9,202.9a7.469,7.469,0,0,0-3.112-12.59l-70.316-20.292,25.988-68.056a7.454,7.454,0,0,0-1.2-7.389,7.551,7.551,0,0,0-7.038-2.657l-72.274,11.652L372.063,31a7.485,7.485,0,0,0-4.275-6.161,7.569,7.569,0,0,0-7.5.6L300.018,66.786,263.409,3.742a7.55,7.55,0,0,0-13.039,0L208.347,76.11l-72.69-41.953a7.566,7.566,0,0,0-7.528-.018,7.477,7.477,0,0,0-3.78,6.473l-.176,72.795-72.965-6.014a7.55,7.55,0,0,0-6.807,3.194,7.444,7.444,0,0,0-.622,7.459l31.242,65.835L6.508,209.562a7.465,7.465,0,0,0-2.117,12.792L61.01,268.506,10.2,320.916a7.469,7.469,0,0,0,3.6,12.458l71.055,17.551L61.56,419.936a7.453,7.453,0,0,0,1.494,7.336,7.554,7.554,0,0,0,7.137,2.382l71.76-14.443,8.721,72.278a7.488,7.488,0,0,0,4.513,5.99,7.565,7.565,0,0,0,7.475-.891l58.6-43.647,39.055,59.566A7.538,7.538,0,0,0,266.678,512c.1,0,.2,0,.3-.006A7.533,7.533,0,0,0,273.341,508l34.107-62.4,61.839,38.974a7.566,7.566,0,0,0,7.522.31,7.482,7.482,0,0,0,4.03-6.322l3.031-72.734,72.674,8.84a7.555,7.555,0,0,0,6.928-2.927,7.45,7.45,0,0,0,.914-7.43l-28.636-67,69.465-23a7.466,7.466,0,0,0,2.619-12.7Z" fill="#444"/><ellipse cx="155.069" cy="154.949" rx="155.069" ry="154.949" transform="translate(99.281 99.742)" fill="#555"/><path d="M254.354,99.743q-5.826,0-11.543.428c80.25,5.9,143.525,72.825,143.525,154.521S323.061,403.311,242.811,409.213q5.717.42,11.543.428c85.641,0,155.068-69.373,155.068-154.948S339.995,99.743,254.354,99.743Z" fill="#777"/></g></g></svg>